<mxfile host="app.diagrams.net" modified="2022-09-09T05:03:15.771Z" agent="5.0 (Macintosh; Intel Mac OS X 10_15_7) AppleWebKit/537.36 (KHTML, like Gecko) Chrome/104.0.0.0 Safari/537.36" etag="Rq1IUf82kkIMmwq-XrIJ" version="20.2.8" type="github">
  <diagram id="PTfSgy440IMklAnJ6n-U" name="Page-1">
    <mxGraphModel dx="1775" dy="1387" grid="0" gridSize="10" guides="1" tooltips="1" connect="1" arrows="1" fold="1" page="0" pageScale="1" pageWidth="850" pageHeight="1100" math="0" shadow="0">
      <root>
        <mxCell id="0" />
        <mxCell id="1" parent="0" />
        <mxCell id="-bzBD-jIPBjAImcT2_SF-3" value="Connect 4 Wireframe" style="text;strokeColor=none;fillColor=none;html=1;align=center;verticalAlign=middle;whiteSpace=wrap;rounded=0;hachureGap=4;" vertex="1" parent="1">
          <mxGeometry x="210.25" y="-272" width="402.5" height="123" as="geometry" />
        </mxCell>
        <mxCell id="-bzBD-jIPBjAImcT2_SF-33" value="" style="rounded=0;whiteSpace=wrap;html=1;hachureGap=4;glass=0;" vertex="1" parent="1">
          <mxGeometry x="1" y="-42" width="827" height="767" as="geometry" />
        </mxCell>
        <mxCell id="-bzBD-jIPBjAImcT2_SF-34" value="" style="ellipse;whiteSpace=wrap;html=1;glass=0;hachureGap=4;" vertex="1" parent="1">
          <mxGeometry x="223" y="-8" width="85" height="82" as="geometry" />
        </mxCell>
        <mxCell id="-bzBD-jIPBjAImcT2_SF-64" value="" style="ellipse;whiteSpace=wrap;html=1;glass=0;hachureGap=4;" vertex="1" parent="1">
          <mxGeometry x="680" y="116" width="85" height="82" as="geometry" />
        </mxCell>
        <mxCell id="-bzBD-jIPBjAImcT2_SF-65" value="" style="ellipse;whiteSpace=wrap;html=1;glass=0;hachureGap=4;" vertex="1" parent="1">
          <mxGeometry x="531" y="116" width="85" height="82" as="geometry" />
        </mxCell>
        <mxCell id="-bzBD-jIPBjAImcT2_SF-66" value="" style="ellipse;whiteSpace=wrap;html=1;glass=0;hachureGap=4;" vertex="1" parent="1">
          <mxGeometry x="373" y="116" width="85" height="82" as="geometry" />
        </mxCell>
        <mxCell id="-bzBD-jIPBjAImcT2_SF-67" value="" style="ellipse;whiteSpace=wrap;html=1;glass=0;hachureGap=4;" vertex="1" parent="1">
          <mxGeometry x="219" y="116" width="85" height="82" as="geometry" />
        </mxCell>
        <mxCell id="-bzBD-jIPBjAImcT2_SF-68" value="" style="ellipse;whiteSpace=wrap;html=1;glass=0;hachureGap=4;" vertex="1" parent="1">
          <mxGeometry x="60" y="116" width="85" height="82" as="geometry" />
        </mxCell>
        <mxCell id="-bzBD-jIPBjAImcT2_SF-69" value="" style="ellipse;whiteSpace=wrap;html=1;glass=0;hachureGap=4;" vertex="1" parent="1">
          <mxGeometry x="60" y="-15" width="85" height="82" as="geometry" />
        </mxCell>
        <mxCell id="-bzBD-jIPBjAImcT2_SF-70" value="" style="ellipse;whiteSpace=wrap;html=1;glass=0;hachureGap=4;" vertex="1" parent="1">
          <mxGeometry x="680" y="246" width="85" height="82" as="geometry" />
        </mxCell>
        <mxCell id="-bzBD-jIPBjAImcT2_SF-71" value="" style="ellipse;whiteSpace=wrap;html=1;glass=0;hachureGap=4;" vertex="1" parent="1">
          <mxGeometry x="531" y="243" width="85" height="82" as="geometry" />
        </mxCell>
        <mxCell id="-bzBD-jIPBjAImcT2_SF-72" value="" style="ellipse;whiteSpace=wrap;html=1;glass=0;hachureGap=4;" vertex="1" parent="1">
          <mxGeometry x="369" y="243" width="85" height="82" as="geometry" />
        </mxCell>
        <mxCell id="-bzBD-jIPBjAImcT2_SF-73" value="" style="ellipse;whiteSpace=wrap;html=1;glass=0;hachureGap=4;" vertex="1" parent="1">
          <mxGeometry x="223" y="243" width="85" height="82" as="geometry" />
        </mxCell>
        <mxCell id="-bzBD-jIPBjAImcT2_SF-74" value="" style="ellipse;whiteSpace=wrap;html=1;glass=0;hachureGap=4;" vertex="1" parent="1">
          <mxGeometry x="55" y="243" width="85" height="82" as="geometry" />
        </mxCell>
        <mxCell id="-bzBD-jIPBjAImcT2_SF-75" value="" style="ellipse;whiteSpace=wrap;html=1;glass=0;hachureGap=4;" vertex="1" parent="1">
          <mxGeometry x="369" y="-8" width="85" height="82" as="geometry" />
        </mxCell>
        <mxCell id="-bzBD-jIPBjAImcT2_SF-76" value="" style="ellipse;whiteSpace=wrap;html=1;glass=0;hachureGap=4;" vertex="1" parent="1">
          <mxGeometry x="680" y="363" width="85" height="82" as="geometry" />
        </mxCell>
        <mxCell id="-bzBD-jIPBjAImcT2_SF-77" value="" style="ellipse;whiteSpace=wrap;html=1;glass=0;hachureGap=4;" vertex="1" parent="1">
          <mxGeometry x="531" y="363" width="85" height="82" as="geometry" />
        </mxCell>
        <mxCell id="-bzBD-jIPBjAImcT2_SF-78" value="" style="ellipse;whiteSpace=wrap;html=1;glass=0;hachureGap=4;" vertex="1" parent="1">
          <mxGeometry x="373" y="363" width="85" height="82" as="geometry" />
        </mxCell>
        <mxCell id="-bzBD-jIPBjAImcT2_SF-79" value="" style="ellipse;whiteSpace=wrap;html=1;glass=0;hachureGap=4;" vertex="1" parent="1">
          <mxGeometry x="219" y="363" width="85" height="82" as="geometry" />
        </mxCell>
        <mxCell id="-bzBD-jIPBjAImcT2_SF-80" value="" style="ellipse;whiteSpace=wrap;html=1;glass=0;hachureGap=4;" vertex="1" parent="1">
          <mxGeometry x="63" y="363" width="85" height="82" as="geometry" />
        </mxCell>
        <mxCell id="-bzBD-jIPBjAImcT2_SF-81" value="" style="ellipse;whiteSpace=wrap;html=1;glass=0;hachureGap=4;" vertex="1" parent="1">
          <mxGeometry x="529" y="-3" width="85" height="82" as="geometry" />
        </mxCell>
        <mxCell id="-bzBD-jIPBjAImcT2_SF-82" value="" style="ellipse;whiteSpace=wrap;html=1;glass=0;hachureGap=4;" vertex="1" parent="1">
          <mxGeometry x="680" y="495" width="85" height="82" as="geometry" />
        </mxCell>
        <mxCell id="-bzBD-jIPBjAImcT2_SF-83" value="" style="ellipse;whiteSpace=wrap;html=1;glass=0;hachureGap=4;" vertex="1" parent="1">
          <mxGeometry x="531" y="492" width="85" height="82" as="geometry" />
        </mxCell>
        <mxCell id="-bzBD-jIPBjAImcT2_SF-84" value="" style="ellipse;whiteSpace=wrap;html=1;glass=0;hachureGap=4;" vertex="1" parent="1">
          <mxGeometry x="373" y="495" width="85" height="82" as="geometry" />
        </mxCell>
        <mxCell id="-bzBD-jIPBjAImcT2_SF-85" value="" style="ellipse;whiteSpace=wrap;html=1;glass=0;hachureGap=4;" vertex="1" parent="1">
          <mxGeometry x="215" y="495" width="85" height="82" as="geometry" />
        </mxCell>
        <mxCell id="-bzBD-jIPBjAImcT2_SF-86" value="" style="ellipse;whiteSpace=wrap;html=1;glass=0;hachureGap=4;" vertex="1" parent="1">
          <mxGeometry x="60" y="492" width="85" height="82" as="geometry" />
        </mxCell>
        <mxCell id="-bzBD-jIPBjAImcT2_SF-87" value="" style="ellipse;whiteSpace=wrap;html=1;glass=0;hachureGap=4;" vertex="1" parent="1">
          <mxGeometry x="680" y="-6" width="85" height="82" as="geometry" />
        </mxCell>
        <mxCell id="-bzBD-jIPBjAImcT2_SF-88" value="" style="ellipse;whiteSpace=wrap;html=1;glass=0;hachureGap=4;" vertex="1" parent="1">
          <mxGeometry x="680" y="627" width="85" height="82" as="geometry" />
        </mxCell>
        <mxCell id="-bzBD-jIPBjAImcT2_SF-89" value="" style="ellipse;whiteSpace=wrap;html=1;glass=0;hachureGap=4;" vertex="1" parent="1">
          <mxGeometry x="529" y="632" width="85" height="82" as="geometry" />
        </mxCell>
        <mxCell id="-bzBD-jIPBjAImcT2_SF-90" value="" style="ellipse;whiteSpace=wrap;html=1;glass=0;hachureGap=4;" vertex="1" parent="1">
          <mxGeometry x="373" y="632" width="85" height="82" as="geometry" />
        </mxCell>
        <mxCell id="-bzBD-jIPBjAImcT2_SF-91" value="" style="ellipse;whiteSpace=wrap;html=1;glass=0;hachureGap=4;" vertex="1" parent="1">
          <mxGeometry x="205" y="632" width="85" height="82" as="geometry" />
        </mxCell>
        <mxCell id="-bzBD-jIPBjAImcT2_SF-92" value="" style="ellipse;whiteSpace=wrap;html=1;glass=0;hachureGap=4;" vertex="1" parent="1">
          <mxGeometry x="57" y="632" width="85" height="82" as="geometry" />
        </mxCell>
        <mxCell id="-bzBD-jIPBjAImcT2_SF-95" value="Red player&#39;s turn" style="text;strokeColor=none;fillColor=none;html=1;align=center;verticalAlign=middle;whiteSpace=wrap;rounded=0;glass=0;hachureGap=4;" vertex="1" parent="1">
          <mxGeometry x="156.5" y="-149" width="510" height="73" as="geometry" />
        </mxCell>
      </root>
    </mxGraphModel>
  </diagram>
</mxfile>
